#!OML:ASF E:\acrobat2\Project_11_07_03\Capture day 1\Session 1\Acrobat.ASF
:FULLY-SPECIFIED
:DEGREES
635
root 1.54515 17.9644 28.3282 359.588 -80.7179 7.0004
lowerback -3.60747 0.379395 -2.26312
upperback -3.84558 0.428947 -2.39608
thorax -1.92919 0.196017 -1.18359
lowerneck 0.569385 -2.31933 0.526297
upperneck 0.639935 -3.09532 0.60681
head 0.102074 -1.54732 0.0993552
rclavicle -3.28492e-014 1.03368e-014
rhumerus -17.8758 -33.5881 -0.539313
rradius 21.4099
rwrist 7.29439
rhand -15.9738 -48.761
rfingers 7.12502
rthumb 10.2255 -438.493
lclavicle -3.28492e-014 1.03368e-014
lhumerus 1.79132 10.3532 -1.13749
lradius 22.8659
lwrist 14.5719
lhand -14.074 -7.91962
lfingers 7.12502
lthumb 12.0578 21.713
rfemur 15.4717 29.5616 14.3497
rtibia -6.62586
rfoot -56.0451 -34.4056
rtoes 28.102
lfemur 6.61942 -9.80564 -7.65628
ltibia -4.37722
lfoot -24.2178 0.740817
ltoes 48.8468
636
root 1.53091 17.965 28.3149 359.945 -80.7829 6.73875
lowerback -3.71167 0.446715 -2.14321
upperback -3.85306 0.520749 -2.36699
thorax -1.87705 0.239419 -1.21829
lowerneck 0.122872 -2.42034 0.76623
upperneck 0.852888 -3.23155 0.192627
head 0.227228 -1.6138 -0.0704073
rclavicle 3.57812e-015 3.97569e-014
rhumerus -17.8947 -37.5784 0.327893
rradius 20.9115
rwrist 11.2648
rhand -15.728 -48.4854
rfingers 7.12502
rthumb 10.4625 -438.205
lclavicle 3.57812e-015 3.97569e-014
lhumerus 1.42837 10.5487 -1.02968
lradius 23.0635
lwrist 14.3438
lhand -13.6892 -8.0528
lfingers 7.12502
lthumb 12.4287 21.5577
rfemur 15.4678 29.8068 14.5538
rtibia -6.6527
rfoot -56.2235 -34.6394
rtoes 28.0049
lfemur 6.65095 -10.1857 -7.62123
ltibia -4.49284
lfoot -24.7401 0.995441
ltoes 48.6134
637
root 1.51716 17.9647 28.3014 361.474 -80.7864 5.27975
lowerback -3.81614 0.524944 -1.83386
upperback -3.85803 0.624919 -2.28905
thorax -1.81978 0.286037 -1.30828
lowerneck -0.440869 -2.53381 1.27523
upperneck 1.17319 -3.38453 -0.568219
head 0.394793 -1.69022 -0.393905
rclavicle -1.41634e-015 -7.95139e-015
rhumerus -18.1715 -35.7472 0.482681
rradius 21.2797
rwrist 9.42447
rhand -16.0646 -49.1136
rfingers 7.12502
rthumb 10.1378 -438.849
lclavicle -1.41634e-015 -7.95139e-015
lhumerus 1.64476 10.8866 -0.663179
lradius 22.9402
lwrist 14.106
lhand -13.4605 -8.02309
lfingers 7.12502
lthumb 12.6493 21.5739
rfemur 15.5592 30.2973 15.1112
rtibia -6.66452
rfoot -56.8504 -34.5858
rtoes 28.8962
lfemur 6.6526 -10.4744 -7.33289
ltibia -4.61442
lfoot -25.0458 1.62473
ltoes 47.6526
638
root 1.50183 17.9609 28.282 362.381 -80.8486 4.42044
lowerback -3.91625 0.365958 -1.82238
upperback -3.9356 0.410974 -2.26034
thorax -1.84605 0.177954 -1.28965
lowerneck -0.589829 -2.39411 2.02414
upperneck 1.38021 -3.20268 -1.01203
head 0.46672 -1.59811 -0.656495
rclavicle -2.68856e-014 1.82882e-014
rhumerus -17.7808 -36.6121 0.0645581
rradius 21.2115
rwrist 10.4074
rhand -16.1237 -48.9742
rfingers 7.12502
rthumb 10.0808 -438.713
lclavicle -2.68856e-014 1.82882e-014
lhumerus 1.93917 10.7007 -0.884553
lradius 22.5141
lwrist 14.1186
lhand -13.5395 -7.59906
lfingers 7.12502
lthumb 12.5731 22.0026
rfemur 15.6974 30.8897 15.5907
rtibia -6.73193
rfoot -57.4829 -34.8443
rtoes 29.2171
lfemur 6.72135 -10.7181 -7.14237
ltibia -4.75747
lfoot -25.3626 2.2151
ltoes 46.7639
639
root 1.48579 17.9583 28.2662 361.195 -80.9138 5.76036
lowerback -4.08659 0.288583 -2.08665
upperback -3.99902 0.312182 -2.31787
thorax -1.8193 0.131671 -1.20258
lowerneck -0.73792 -2.31861 2.15389
upperneck 1.53054 -3.10871 -0.893172
head 0.538638 -1.54943 -0.645129
rclavicle -1.63003e-014 2.38542e-014
rhumerus -17.6834 -38.2909 0.110396
rradius 21.1365
rwrist 12.1396
rhand -16.0157 -48.6807
rfingers 7.12502
rthumb 10.185 -438.414
lclavicle -1.63003e-014 2.38542e-014
lhumerus 1.6914 10.633 -1.13526
lradius 22.6253
lwrist 14.1163
lhand -13.658 -7.56906
lfingers 7.12502
lthumb 12.4588 22.0396
rfemur 15.6656 31.1454 15.4185
rtibia -6.83125
rfoot -57.557 -35.4043
rtoes 28.3113
lfemur 6.72168 -11.1292 -7.42681
ltibia -4.90083
lfoot -25.8944 2.77019
ltoes 45.9747
640
root 1.47137 17.9573 28.2582 360.601 -80.8591 6.50196
lowerback -4.2444 0.232819 -2.15197
upperback -4.05494 0.239907 -2.33807
thorax -1.78986 0.0952299 -1.18823
lowerneck -0.649018 -2.30507 1.9886
upperneck 1.47079 -3.09124 -0.604173
head 0.512191 -1.53989 -0.527079
rclavicle 1.15295e-014 -1.35174e-014
rhumerus -17.7283 -35.7685 -0.140298
rradius 21.5502
rwrist 9.63944
rhand -16.298 -49.0972
rfingers 7.12502
rthumb 9.91265 -438.844
lclavicle 1.15295e-014 -1.35174e-014
lhumerus 1.78911 12.1537 -0.691625
lradius 22.4324
lwrist 12.6076
lhand -13.7553 -7.87315
lfingers 7.12502
lthumb 12.3651 21.7412
rfemur 15.5699 30.9626 15.1852
rtibia -6.89581
rfoot -57.4396 -35.0857
rtoes 28.6908
lfemur 6.68968 -11.8116 -7.67957
ltibia -5.00825
lfoot -26.5765 3.15949
ltoes 45.5113
641
root 1.45946 17.9538 28.2478 361.611 -80.9115 5.51256
lowerback -4.29378 0.225151 -1.94609
upperback -4.08946 0.225455 -2.2952
thorax -1.79675 0.0837737 -1.25978
lowerneck -0.382029 -2.36952 1.87461
upperneck 1.23881 -3.17361 -0.340584
head 0.401858 -1.58127 -0.421714
rclavicle -2.65378e-014 -3.18055e-014
rhumerus -17.7871 -33.4549 -0.331308
rradius 21.9474
rwrist 7.33214
rhand -16.3877 -49.2023
rfingers 7.12502
rthumb 9.82614 -438.953
lclavicle -2.65378e-014 -3.18055e-014
lhumerus 1.72616 12.7102 -0.52985
lradius 22.3979
lwrist 12.1608
lhand -14.0311 -7.95559
lfingers 7.12502
lthumb 12.0992 21.6746
rfemur 15.4563 30.6438 15.2569
rtibia -6.85756
rfoot -56.9031 -34.7819
rtoes 28.9739
lfemur 6.77296 -12.28 -7.55872
ltibia -5.0897
lfoot -27.1775 3.22263
ltoes 45.5745
642
root 1.44835 17.95 28.2336 363.446 -81.0835 3.70188
lowerback -4.32294 0.280252 -1.67008
upperback -4.1332 0.292645 -2.22348
thorax -1.82329 0.11217 -1.33893
lowerneck -0.411556 -2.53176 1.97006
upperneck 1.16379 -3.39114 -0.335028
head 0.380075 -1.69004 -0.43596
rclavicle 1.16289e-014 -1.59028e-015
rhumerus -17.8474 -32.7989 -0.29547
rradius 22.0348
rwrist 6.65281
rhand -16.4006 -48.9598
rfingers 7.12502
rthumb 9.81364 -438.711
lclavicle 1.16289e-014 -1.59028e-015
lhumerus 1.71771 12.9028 -0.436243
lradius 22.4178
lwrist 12.0665
lhand -14.272 -7.9835
lfingers 7.12502
lthumb 11.8668 21.6602
rfemur 15.1851 30.2464 15.4036
rtibia -6.72374
rfoot -55.6143 -35.4705
rtoes 26.9619
lfemur 6.82422 -12.1917 -7.15452
ltibia -5.11862
lfoot -27.4274 3.12001
ltoes 45.6057
643
root 1.43471 17.9475 28.2208 365.238 -81.1824 1.97031
lowerback -4.38386 0.371956 -1.43095
upperback -4.17238 0.4114 -2.11993
thorax -1.82677 0.167744 -1.36312
lowerneck -0.649793 -2.71806 1.83211
upperneck 1.24879 -3.64427 -0.266564
head 0.445651 -1.81627 -0.398479
rclavicle 6.4605e-016 -2.14687e-014
rhumerus -17.9538 -33.7025 0.155495
rradius 21.8002
rwrist 7.48967
rhand -16.2845 -48.7133
rfingers 7.12502
rthumb 9.92569 -438.459
lclavicle 6.4605e-016 -2.14687e-014
lhumerus 1.87327 12.9611 -0.210491
lradius 22.4086
lwrist 12.3051
lhand -14.3346 -8.01674
lfingers 7.12502
lthumb 11.8064 21.6305
rfemur 14.8795 29.7297 15.498
rtibia -6.59237
rfoot -54.3403 -36.2008
rtoes 24.5385
lfemur 6.83755 -12.1431 -6.79117
ltibia -5.15728
lfoot -27.5745 3.34349
ltoes 45.096
644
root 1.41944 17.9463 28.209 365.696 -81.2206 1.54594
lowerback -4.45294 0.438511 -1.38249
upperback -4.14345 0.503876 -2.0581
thorax -1.757 0.214361 -1.32346
lowerneck -0.889512 -2.82944 1.63763
upperneck 1.25495 -3.79603 -0.166528
head 0.490624 -1.89217 -0.341507
rclavicle -5.56597e-015 1.59028e-015
rhumerus -18.0961 -34.1837 0.564328
rradius 21.6721
rwrist 7.76282
rhand -16.3403 -48.8233
rfingers 7.12502
rthumb 9.87182 -438.572
lclavicle -5.56597e-015 1.59028e-015
lhumerus 1.93461 12.5622 -0.139595
lradius 22.5468
lwrist 13.2079
lhand -14.4346 -7.86328
lfingers 7.12502
lthumb 11.7101 21.7894
rfemur 14.8098 29.5841 15.5684
rtibia -6.5503
rfoot -53.9886 -36.558
rtoes 23.4945
lfemur 6.88116 -12.3251 -6.73956
ltibia -5.18366
lfoot -27.7585 3.60555
ltoes 44.8259
645
root 1.40577 17.9475 28.1978 366.029 -81.2438 1.27992
lowerback -4.56033 0.441952 -1.32477
upperback -4.12076 0.510447 -2.05817
thorax -1.67297 0.216196 -1.35474
lowerneck -1.09415 -2.85748 1.67983
upperneck 1.23975 -3.83877 -0.102217
head 0.519812 -1.91292 -0.33263
rclavicle -1.09829e-014 6.36111e-015
rhumerus -18.1727 -35.1532 0.794216
rradius 21.5929
rwrist 8.46476
rhand -16.5795 -49.1477
rfingers 7.12502
rthumb 9.64103 -438.907
lclavicle -1.09829e-014 6.36111e-015
lhumerus 1.94151 12.4285 -0.190244
lradius 22.6687
lwrist 13.666
lhand -14.5595 -7.77468
lfingers 7.12502
lthumb 11.5895 21.8848
rfemur 14.8091 29.7431 15.6989
rtibia -6.58638
rfoot -54.5825 -35.981
rtoes 25.3386
lfemur 6.83225 -12.4244 -6.65859
ltibia -5.1467
lfoot -27.8984 3.3349
ltoes 45.6605
646
root 1.39326 17.9474 28.1878 365.5 -81.3017 1.87936
lowerback -4.62196 0.433347 -1.41299
upperback -4.16266 0.499265 -2.09036
thorax -1.68277 0.21112 -1.33859
lowerneck -1.12183 -2.87126 1.60862
upperneck 1.26235 -3.85959 0.0737255
head 0.535686 -1.92238 -0.268718
rclavicle 7.45443e-016 -2.78299e-014
rhumerus -18.181 -37.5517 1.20313
rradius 21.3174
rwrist 10.7276
rhand -16.2801 -49.0337
rfingers 7.12502
rthumb 9.92994 -438.779
lclavicle 7.45443e-016 -2.78299e-014
lhumerus 1.89448 12.6013 -0.146642
lradius 22.7238
lwrist 13.5751
lhand -14.6667 -7.86043
lfingers 7.12502
lthumb 11.4862 21.8049
rfemur 14.7264 29.6492 15.5277
rtibia -6.63354
rfoot -55.2492 -34.1672
rtoes 29.5876
lfemur 6.7903 -12.4638 -6.73074
ltibia -5.12321
lfoot -28.0215 3.01502
ltoes 46.6948
647
root 1.37996 17.9449 28.1782 364.033 -81.4151 3.3514
lowerback -4.63085 0.435058 -1.67688
upperback -4.17736 0.506963 -2.12151
thorax -1.69557 0.219974 -1.22258
lowerneck -1.11887 -2.91501 1.63878
upperneck 1.22782 -3.9177 0.046995
head 0.523117 -1.95169 -0.281593
rclavicle 1.92324e-014 1.35174e-014
rhumerus -18.1518 -38.4892 1.41226
rradius 21.1701
rwrist 11.575
rhand -16.0311 -48.8854
rfingers 7.12502
rthumb 10.1701 -438.62
lclavicle 1.92324e-014 1.35174e-014
lhumerus 1.81013 12.7704 -0.048577
lradius 22.8048
lwrist 13.5579
lhand -14.7554 -7.89452
lfingers 7.12502
lthumb 11.4006 21.7756
rfemur 14.6696 29.3242 15.1353
rtibia -6.68944
rfoot -54.4565 -34.991
rtoes 27.6198
lfemur 6.87721 -12.4441 -7.01762
ltibia -5.11388
lfoot -28.1249 2.89649
ltoes 47.2595
648
root 1.36596 17.9424 28.1704 363.745 -81.5441 3.62756
lowerback -4.66739 0.468302 -1.75687
upperback -4.15867 0.555633 -2.11172
thorax -1.65648 0.246293 -1.1658
lowerneck -1.25598 -2.98012 1.82273
upperneck 1.23534 -4.00905 -0.0520592
head 0.542015 -1.99711 -0.344708
rclavicle 8.74653e-015 -1.03368e-014
rhumerus -18.2322 -37.422 1.38516
rradius 21.317
rwrist 10.4251
rhand -16.24 -49.0058
rfingers 7.12502
rthumb 9.96867 -438.75
lclavicle 8.74653e-015 -1.03368e-014
lhumerus 1.86962 13.2768 0.144151
lradius 22.776
lwrist 13.2432
lhand -14.6596 -7.94137
lfingers 7.12502
lthumb 11.4931 21.7236
rfemur 14.5831 28.8618 14.8983
rtibia -6.75361
rfoot -53.6893 -34.5648
rtoes 28.1303
lfemur 6.99122 -12.5187 -7.12225
ltibia -5.09068
lfoot -28.3968 2.88439
ltoes 47.2833
